Coordinates
version=1
nRows=8
nColumns=33
inDegrees=yes

Units are S.I. units (second, meters, Newtons, ...)
Angles are in degrees.

endheader
time	ground_thorax_rot_x	ground_thorax_rot_y	ground_thorax_rot_z	ground_thorax_tx	ground_thorax_ty	ground_thorax_tz	clav_prot_r	clav_elev_r	scapula_abduction_r	scapula_elevation_r	scapula_upward_rot_r	scapula_winging_r	shoulder_elv_r	plane_of_elev_r	axial_rot_r	elbow_flexion_r	pro_sup_r	wrist_flex_r	wrist_dev_r	clav_prot_l	clav_elev_l	scapula_abduction_l	scapula_elevation_l	scapula_upward_rot_l	scapula_winging_l	shoulder_elv_l	plane_of_elev_l	axial_rot_l	elbow_flexion_l	pro_sup_l	wrist_flex_l	wrist_dev_l
      2.81000000	     -3.63375306	      4.22344146	     12.26936262	     -0.11175228	      1.02435891	      0.00914694	     13.53306488	    -14.88388984	     27.56605960	    -10.39120137	      8.21374243	     -5.57003709	    -11.88773336	    -63.24844261	    117.40928195	    -50.51401455	   -174.69957713	     18.12574661	     -3.21891262	     19.59140354	     -8.95325674	    -28.62638922	    -10.19759451	    -29.49973478	      7.33836075	     59.81752465	     -6.54564963	     17.96364730	     28.03153710	      2.09509709	     15.01789717	    -13.08822903
      2.82000000	     -3.65844324	      4.20919054	     12.46780047	     -0.11224102	      1.02395892	      0.00933466	     13.35610004	    -14.76935023	     26.89451034	    -10.04136742	      7.51357673	     -5.37915228	    -12.55814853	    -63.59685353	    117.43255577	    -50.74536634	   -174.64179581	     18.21021794	     -3.05096501	     19.39239841	     -8.64724889	    -28.33808619	    -10.73703110	    -30.04392640	      7.16451546	     59.78367950	     -7.33668919	     17.62719955	     29.30301148	      2.00355672	     15.22547189	    -13.47821957
      2.83000000	     -3.53932750	      4.26167849	     12.56752386	     -0.11276728	      1.02385347	      0.00944133	     13.18693819	    -14.71147967	     26.26072328	     -9.75446635	      6.85658511	     -5.16672702	    -13.00777874	    -63.97502789	    117.25839688	    -50.73635492	   -174.58667146	     18.23419630	     -2.90151810	     19.20144053	     -8.42544683	    -28.05910352	    -11.18435767	    -30.55120575	      6.98506098	     59.67686037	     -7.98733853	     17.15544732	     30.38022417	      1.97557132	     15.44510670	    -13.83204161
      2.84000000	     -3.54857405	      4.29251525	     12.76461373	     -0.11323611	      1.02363098	      0.00963149	     12.98776980	    -14.64948334	     25.53526006	     -9.43015532	      6.11283319	     -4.91841657	    -13.63447614	    -64.30843173	    117.15118087	    -50.80058610	   -174.48038869	     18.27265860	     -2.69625804	     18.98155237	     -8.17908244	    -27.73578387	    -11.65405791	    -31.05418112	      6.77923676	     59.66489427	     -8.82743995	     16.67384507	     31.44880477	      1.98344415	     15.66058085	    -14.21367008
      2.85000000	     -3.63872099	      4.36836841	     12.89934236	     -0.11364859	      1.02353938	      0.00995046	     12.71542387	    -14.73436334	     24.66142921	     -9.21813474	      5.31867728	     -4.52274988	    -14.30859419	    -64.62394371	    116.90602817	    -50.90973845	   -174.27306681	     18.30923542	     -2.37618479	     18.74089946	     -7.95467393	    -27.37190922	    -12.06269361	    -31.46395779	      6.55579330	     59.82825530	     -9.80407641	     15.87409796	     32.40984173	      2.11075299	     15.94757186	    -14.65371085
      2.86000000	     -3.87770329	      4.77945726	     12.63145173	     -0.11322372	      1.02493783	      0.01009854	     11.79506402	    -15.77029928	     22.68237130	     -9.87727369	      4.48388659	     -3.10346069	    -15.05833401	    -65.30081886	    115.56736348	    -50.85261089	   -173.39165127	     18.21392159	     -1.43134482	     18.20796790	     -7.89474997	    -26.44409104	    -12.02465563	    -31.20508098	      6.09469228	     60.36799788	    -10.98216764	     14.25951614	     32.98103732	      2.83601933	     16.56489857	    -15.47401817
      2.87000000	     -3.75430642	      4.73973609	     12.72392594	     -0.11365019	      1.02472055	      0.01021776	     11.63438451	    -15.58827385	     22.16777729	     -9.52711216	      3.99000534	     -3.00924017	    -15.58704805	    -65.71776352	    115.61200914	    -50.69907439	   -173.23101318	     18.19758073	     -1.34491677	     18.02673297	     -7.55905932	    -26.18616667	    -12.53984876	    -31.63478190	      5.93612498	     60.00903650	    -11.57108969	     14.27119261	     33.72127321	      2.89822792	     16.60282276	    -15.70614033
      2.88000000	     -3.65995308	      4.76308410	     12.88829251	     -0.11413133	      1.02455369	      0.01041418	     11.48579053	    -15.42171973	     21.60215666	     -9.13461266	      3.35527612	     -2.88555101	    -16.09455089	    -66.01771312	    115.50071336	    -50.45079507	   -173.00454742	     18.17693400	     -1.25780749	     17.84579650	     -7.27381732	    -25.92732480	    -13.00728034	    -32.05725277	      5.76898908	     59.74698621	    -12.26439469	     13.91979254	     34.35457672	      3.10048321	     16.66016357	    -15.94559659
